<svg width="263" height="199" viewBox="0 0 263 199" fill="none" xmlns="http://www.w3.org/2000/svg">
<path d="M265.736 140.176C259.3 140.176 254.439 145.256 254.439 151.976V170.2C254.439 194.979 241.632 211.007 221.797 211.007C201.962 211.007 189.943 194.848 189.943 169.839V-21.7087C189.943 -26.5924 187.25 -30.7223 183.441 -32.6889C181.963 -33.4756 180.321 -34 178.548 -34C176.774 -34 174.935 -33.5739 173.293 -32.6889C171.684 -31.8367 170.174 -30.5912 168.794 -28.9196L65.219 108.383H0V130.245H48.7008L0 194.848V231.263L75.0051 131.425H124.56C129.978 131.425 134.74 125.853 134.74 119.527C134.74 113.201 130.635 107.956 125.184 107.956H92.6398L166.791 9.19985V169.413C166.791 202.026 183.933 226.019 209.745 231.722C213.587 232.574 217.594 233 221.764 233C225.935 233 230.007 232.541 233.849 231.722C259.759 226.051 277 202.026 277 169.413V151.976C277 145.486 271.943 140.176 265.703 140.176" fill="#08102A"/>
</svg>
