<svg width="139" height="25" viewBox="0 0 139 25" fill="none" xmlns="http://www.w3.org/2000/svg">
<path d="M16.7254 6.23741C15.8386 6.23741 15.1158 6.96014 15.1158 7.84693V8.35684C13.5196 6.94241 11.4933 6.1709 9.33841 6.1709C4.43889 6.1709 0.603516 10.0949 0.603516 15.1009C0.603516 20.1068 4.43889 24.0309 9.33841 24.0309C11.5155 24.0309 13.5418 23.2638 15.1158 21.8538V22.3238C15.1158 23.2283 15.8386 23.9644 16.7254 23.9644C17.6122 23.9644 18.3349 23.2416 18.3349 22.3238V7.84693C18.3349 6.94241 17.6299 6.23741 16.7254 6.23741ZM9.50246 21.0113C6.33662 21.0113 3.85804 18.4175 3.85804 15.1053C3.85804 11.7932 6.33662 9.19929 9.50246 9.19929C12.6683 9.19929 14.9917 11.6335 15.1158 14.8437V15.3581C14.9917 18.5815 12.5752 21.0113 9.50246 21.0113Z" fill="white"/>
<path d="M36.2427 6.23828C35.3381 6.23828 34.6331 6.94771 34.6331 7.84781V16.2768C34.6331 19.1987 33.0059 21.0122 30.3854 21.0122C27.7649 21.0122 26.1732 19.1544 26.1732 16.2768V7.84781C26.1732 6.96102 25.4504 6.23828 24.5636 6.23828C23.6768 6.23828 22.9541 6.94771 22.9541 7.84781V16.1792C22.9541 20.8038 26.0091 24.0362 30.3898 24.0362C34.7706 24.0362 37.8566 20.8038 37.8566 16.1792V7.84781C37.8566 6.96102 37.1339 6.23828 36.2471 6.23828" fill="white"/>
<path d="M49.4515 6.1709C45.257 6.1709 42.4414 9.11948 42.4414 13.5091V22.3282C42.4414 23.2505 43.1464 23.9688 44.0509 23.9688C44.9555 23.9688 45.6605 23.2328 45.6605 22.3282V13.5091C45.6605 10.8088 47.0793 9.19486 49.4515 9.19486C50.2718 9.19486 50.9635 8.50316 50.9635 7.68288C50.9635 6.8626 50.2851 6.1709 49.4515 6.1709Z" fill="white"/>
<path d="M68.6824 6.23741C67.7956 6.23741 67.0729 6.96014 67.0729 7.84693V8.35684C65.4767 6.94241 63.4503 6.1709 61.2954 6.1709C56.3959 6.1709 52.5605 10.0949 52.5605 15.1009C52.5605 20.1068 56.3959 24.0309 61.2954 24.0309C63.4725 24.0309 65.4988 23.2638 67.0729 21.8538V22.3238C67.0729 23.2283 67.7956 23.9644 68.6824 23.9644C69.5692 23.9644 70.2919 23.2416 70.2919 22.3238V7.84693C70.2919 6.94241 69.5825 6.23741 68.6824 6.23741ZM61.4595 21.0113C58.2937 21.0113 55.8151 18.4175 55.8151 15.1053C55.8151 11.7932 58.2937 9.19929 61.4595 9.19929C64.6253 9.19929 66.9487 11.6335 67.0729 14.8437V15.3581C66.9443 18.5815 64.5322 21.0113 61.4595 21.0113Z" fill="white"/>
<path d="M90.284 0.0527344C89.3972 0.0527344 88.6744 0.77547 88.6744 1.66226V8.35753C87.0782 6.9431 85.0519 6.17159 82.897 6.17159C77.9975 6.17159 74.1621 10.0956 74.1621 15.1016C74.1621 20.1075 77.9975 24.0316 82.897 24.0316C85.0741 24.0316 87.1004 23.2645 88.6744 21.8545V22.3245C88.6744 23.229 89.3972 23.9651 90.284 23.9651C91.1708 23.9651 91.8935 23.2423 91.8935 22.3245V1.66226C91.8935 0.757734 91.1885 0.0527344 90.284 0.0527344ZM83.061 21.0076C79.8952 21.0076 77.4166 18.4137 77.4166 15.1016C77.4166 11.7894 79.8952 9.19555 83.061 9.19555C86.2269 9.19555 88.5503 11.6298 88.6744 14.84V15.3543C88.5459 18.5778 86.1338 21.0076 83.061 21.0076Z" fill="white"/>
<path d="M98.1232 6.23828C97.2187 6.23828 96.5137 6.94771 96.5137 7.84781V22.3247C96.5137 23.2469 97.2187 23.9652 98.1232 23.9652C99.0277 23.9652 99.7327 23.2292 99.7327 22.3247V7.84781C99.7327 6.96102 99.01 6.23828 98.1232 6.23828Z" fill="white"/>
<path d="M98.1232 0.833008C97.0369 0.833008 96.1855 1.68433 96.1855 2.76621C96.1855 3.8481 97.0546 4.69942 98.1232 4.69942C99.1918 4.69942 100.056 3.81263 100.056 2.76621C100.056 1.7198 99.1873 0.833008 98.1232 0.833008Z" fill="white"/>
<path d="M111.753 6.17114C107.377 6.17114 104.317 9.39019 104.317 13.9971V22.3285C104.317 23.2507 105.022 23.969 105.927 23.969C106.831 23.969 107.536 23.233 107.536 22.3285V13.935C107.536 11.0574 109.19 9.19953 111.753 9.19953C114.316 9.19953 116.001 11.013 116.001 13.935V22.3285C116.001 23.2507 116.71 23.969 117.61 23.969C118.51 23.969 119.22 23.233 119.22 22.3285V13.9971C119.22 9.39019 116.152 6.17114 111.753 6.17114Z" fill="white"/>
<path d="M137.391 18.4711C136.81 18.4711 136.437 18.8081 136.052 19.1584C135.307 20.0009 133.99 21.0074 131.955 21.0074C128.789 21.0074 126.31 18.4135 126.31 15.1013C126.31 11.7892 128.789 9.19531 131.955 9.19531C132.948 9.19531 133.928 9.48351 134.633 9.97568L129.782 15.6955C129.525 15.9527 129.401 16.2941 129.401 16.7286C129.401 17.5843 130.048 18.2095 130.944 18.2095C131.396 18.2095 131.773 18.0366 132.092 17.6775L137.874 10.7561C138.22 10.3747 138.379 10.0067 138.379 9.57219C138.379 9.13766 138.162 8.66766 137.794 8.33955C136.304 6.96503 134.176 6.17578 131.955 6.17578C126.966 6.17578 123.056 10.0998 123.056 15.1058C123.056 20.1117 126.962 24.0358 131.955 24.0358C134.566 24.0358 136.965 22.9627 138.535 21.1005C138.818 20.7768 139 20.3511 139 20.0186C139 19.1362 138.308 18.4756 137.391 18.4756" fill="white"/>
</svg>
