<svg width="68" height="68" viewBox="0 0 68 68" fill="none" xmlns="http://www.w3.org/2000/svg">
<g opacity="0.6">
<path d="M34.0007 59.5C34.7917 59.5 35.5273 59.1396 36.998 58.4188L48.8201 52.6255C54.0516 50.0616 56.6673 48.7798 56.6673 46.75V21.25M34.0007 59.5C33.2096 59.5 32.474 59.1396 31.0033 58.4188L19.1811 52.6255C13.9497 50.0616 11.334 48.7798 11.334 46.75V21.25M34.0007 59.5V34" stroke="white" stroke-width="4.25" stroke-linecap="round" stroke-linejoin="round"/>
<path d="M31.0033 9.58117C32.474 8.8604 33.2096 8.5 34.0007 8.5C34.7917 8.5 35.5273 8.8604 36.998 9.58117L48.8201 15.3747C54.0516 17.9383 56.6673 19.2201 56.6673 21.25C56.6673 23.2799 54.0516 24.5617 48.8201 27.1253L36.998 32.9188C35.5273 33.6396 34.7917 34 34.0007 34C33.2096 34 32.474 33.6396 31.0033 32.9188L19.1811 27.1253C13.9497 24.5617 11.334 23.2799 11.334 21.25C11.334 19.2201 13.9497 17.9383 19.1811 15.3747L31.0033 9.58117Z" stroke="white" stroke-width="4.25" stroke-linejoin="round"/>
</g>
</svg>
