<svg width="63" height="63" viewBox="0 0 63 63" fill="none" xmlns="http://www.w3.org/2000/svg">
<path d="M6.5625 31.5C6.5625 20.397 6.5625 14.8454 9.70717 11.1635C10.1537 10.6406 10.6406 10.1537 11.1635 9.70717C14.8454 6.5625 20.397 6.5625 31.5 6.5625C42.603 6.5625 48.1546 6.5625 51.8364 9.70717C52.3593 10.1537 52.8462 10.6406 53.2928 11.1635C56.4375 14.8454 56.4375 20.397 56.4375 31.5C56.4375 42.603 56.4375 48.1546 53.2928 51.8364C52.8462 52.3593 52.3593 52.8462 51.8364 53.2928C48.1546 56.4375 42.603 56.4375 31.5 56.4375C20.397 56.4375 14.8454 56.4375 11.1635 53.2928C10.6406 52.8462 10.1537 52.3593 9.70717 51.8364C6.5625 48.1546 6.5625 42.603 6.5625 31.5Z" stroke="white" stroke-width="3.9375"/>
<path d="M21.3386 30.444L31.836 16.2958C32.6571 15.1893 34.1959 15.8779 34.1959 17.3519V28.3028C34.1959 29.1855 34.7994 29.9014 35.5438 29.9014H40.6494C41.8094 29.9014 42.4276 31.5234 41.6614 32.556L31.164 46.7043C30.3429 47.8107 28.8041 47.1222 28.8041 45.6482V34.6973C28.8041 33.8145 28.2006 33.0986 27.4562 33.0986H22.3505C21.1907 33.0986 20.5724 31.4766 21.3386 30.444Z" stroke="white" stroke-width="3.9375" stroke-linecap="round" stroke-linejoin="round"/>
</svg>
