<svg width="38" height="37" viewBox="0 0 38 37" fill="none" xmlns="http://www.w3.org/2000/svg">
<path d="M22.8484 35.9288C20.8886 33.8891 19.7446 30.9494 19.7446 27.5175V23.8418C18.9864 24.6488 17.9444 25.1542 16.8182 25.1542H11.5152L3.43652 35.9288H22.8484Z" fill="url(#paint0_linear_2012_65)"/>
<path d="M36.6131 7.6131C36.6131 3.4085 33.2046 0 29 0C29.1685 0.474433 29.266 0.979904 29.266 1.50311V27.4196C29.266 28.0758 29.3769 30.213 30.7913 30.213C32.2058 30.213 32.423 28.2931 32.423 27.4684V25.0031C32.423 22.591 34.2542 20.7021 36.6131 20.6445V7.6131Z" fill="url(#paint1_linear_2012_65)"/>
<path d="M35.8796 23.562C35.0105 23.562 34.3543 24.2493 34.3543 25.1583V27.6235C34.3543 30.9756 32.625 33.1438 29.9469 33.1438C27.2688 33.1438 25.646 30.9579 25.646 27.5748V1.66273C25.646 1.00207 25.2824 0.443396 24.7681 0.177358C24.5685 0.0709433 24.3468 0 24.1074 0C23.868 0 23.6197 0.0576414 23.398 0.177358C23.1807 0.292641 22.9768 0.461131 22.7905 0.687263L8.80583 19.2611H0V22.2185H6.57556L0 30.9579V35.884L10.1272 22.3782H16.818C17.5496 22.3782 18.1925 21.6244 18.1925 20.7686C18.1925 19.9129 17.6383 19.2035 16.9022 19.2035H12.5082L22.5201 5.84395V27.5171C22.5201 31.9289 24.8346 35.1746 28.3197 35.9461C28.8384 36.0614 29.3794 36.119 29.9425 36.119C30.5056 36.119 31.0554 36.0569 31.5742 35.9461C35.0726 35.179 37.4004 31.9289 37.4004 27.5171V25.1583C37.4004 24.2803 36.7176 23.562 35.8751 23.562" fill="white"/>
<path d="M19.7311 0.22168H10C4.47715 0.22168 0 4.69884 0 10.2217V16.4056H7.53772L19.7311 0.22168Z" fill="url(#paint2_linear_2012_65)"/>
<defs>
<linearGradient id="paint0_linear_2012_65" x1="-1.99507" y1="0.222115" x2="33.92" y2="35.9155" gradientUnits="userSpaceOnUse">
<stop stop-color="#0061FF"/>
<stop offset="1" stop-color="#60EFFF"/>
</linearGradient>
<linearGradient id="paint1_linear_2012_65" x1="38.0896" y1="33.5384" x2="-1.81599" y2="-0.159621" gradientUnits="userSpaceOnUse">
<stop stop-color="#60EFFF"/>
<stop offset="1" stop-color="#0061FF"/>
</linearGradient>
<linearGradient id="paint2_linear_2012_65" x1="4.71688e-07" y1="0.886772" x2="35.2499" y2="37.0235" gradientUnits="userSpaceOnUse">
<stop stop-color="#0061FF"/>
<stop offset="1" stop-color="#60EFFF"/>
</linearGradient>
</defs>
</svg>
