<svg width="68" height="68" viewBox="0 0 68 68" fill="none" xmlns="http://www.w3.org/2000/svg">
<g opacity="0.6">
<path d="M42.5 29.75C42.5 34.4445 38.6945 38.25 34 38.25C29.3054 38.25 25.5 34.4445 25.5 29.75C25.5 25.0556 29.3054 21.25 34 21.25C38.6945 21.25 42.5 25.0556 42.5 29.75Z" stroke="white" stroke-width="4.25"/>
<path d="M56.7049 35.1427C58.195 34.6948 58.9401 34.4707 59.2201 34.0944C59.5 33.7181 59.5 33.1129 59.5 31.9028V27.5975C59.5 26.3873 59.5 25.7822 59.2201 25.4058C58.9401 25.0295 58.195 24.8056 56.7049 24.3578C51.9934 22.9421 49.0424 18.0554 50.101 13.3275C50.45 11.768 50.6246 10.9882 50.4345 10.5602C50.2441 10.1323 49.7128 9.83243 48.6506 9.23275L44.7528 7.0327C43.7163 6.44764 43.1981 6.15513 42.7374 6.21035C42.2767 6.26554 41.7191 6.78739 40.6039 7.8311C36.9322 11.2679 31.0717 11.2678 27.4 7.83088C26.285 6.78716 25.7275 6.26532 25.2667 6.2101C24.8059 6.15487 24.2877 6.44742 23.2512 7.03244L19.3535 9.2325C18.2911 9.83214 17.76 10.1319 17.5697 10.5599C17.3794 10.9878 17.5539 11.7676 17.9029 13.3273C18.9608 18.0554 16.0076 22.9422 11.2952 24.3579C9.80498 24.8055 9.05987 25.0294 8.77993 25.4057C8.5 25.7821 8.5 26.3872 8.5 27.5975V31.9028C8.5 33.1129 8.5 33.7181 8.7799 34.0944C9.05981 34.471 9.80495 34.6948 11.2952 35.1425C16.0067 36.5583 18.9576 41.4449 17.899 46.1729C17.5499 47.7324 17.3753 48.5121 17.5656 48.9402C17.7558 49.3681 18.287 49.6678 19.3494 50.2676L23.2471 52.4677C24.2837 53.0528 24.802 53.3452 25.2628 53.29C25.7236 53.2347 26.281 52.7128 27.3958 51.669C31.0695 48.2293 36.9345 48.2291 40.6082 51.669C41.7231 52.7125 42.2804 53.2344 42.7411 53.2897C43.2021 53.3449 43.7203 53.0525 44.7567 52.4674L48.6546 50.2674C49.7171 49.6675 50.2483 49.3678 50.4384 48.9397C50.6288 48.5118 50.454 47.7321 50.1047 46.1726C49.0456 41.4449 51.9942 36.5583 56.7049 35.1427Z" stroke="white" stroke-width="4.25" stroke-linecap="round"/>
<path d="M62.3327 51C62.3327 53.635 62.3327 54.9525 62.0431 56.0334C61.2572 58.9665 58.9658 61.2578 56.0328 62.0438C54.9519 62.3333 53.6344 62.3333 50.9994 62.3333H16.9993C14.3644 62.3333 13.047 62.3333 11.966 62.0438C9.03278 61.2578 6.74161 58.9665 5.95564 56.0334C5.66602 54.9525 5.66602 53.635 5.66602 51" stroke="white" stroke-width="4.25" stroke-linecap="round"/>
</g>
</svg>
