<svg width="1512" height="374" viewBox="0 0 1512 374" fill="none" xmlns="http://www.w3.org/2000/svg">
<g opacity="0.05">
<path d="M2219.66 410H-760.34L72.6337 0H1386.69L1387.17 0.234237L2219.66 410ZM-754.388 408.966H2213.71L1384.94 1.03407H74.3759L-754.388 408.966Z" fill="white"/>
<path d="M2069.37 409.217L2066.59 409.743L1318.81 0.77698L1321.59 0.257089L2069.37 409.217Z" fill="white"/>
<path d="M1920.71 409.24L1917.85 409.72L1253.16 0.754128L1256.01 0.279941L1920.71 409.24Z" fill="white"/>
<path d="M1772.04 409.269L1769.11 409.697L1187.5 0.731276L1190.43 0.302794L1772.04 409.269Z" fill="white"/>
<path d="M1623.37 409.292L1620.37 409.669L1121.85 0.70271L1124.85 0.331359L1623.37 409.292Z" fill="white"/>
<path d="M1474.7 409.32L1471.64 409.64L1056.21 0.679858L1059.27 0.354212L1474.7 409.32Z" fill="white"/>
<path d="M1326.03 409.349L1322.91 409.611L990.559 0.645579L993.678 0.38849L1326.03 409.349Z" fill="white"/>
<path d="M1177.35 409.383L1174.18 409.577L924.925 0.617014L928.089 0.417056L1177.35 409.383Z" fill="white"/>
<path d="M1028.66 409.412L1025.46 409.549L859.29 0.582735L862.489 0.451334L1028.66 409.412Z" fill="white"/>
<path d="M879.973 409.446L876.751 409.514L793.667 0.548457L796.883 0.485613L879.973 409.446Z" fill="white"/>
<path d="M731.271 0.519891H728.044V409.486H731.271V0.519891Z" fill="white"/>
<path d="M665.653 0.548457L582.563 409.514L579.347 409.446L662.437 0.485613L665.653 0.548457Z" fill="white"/>
<path d="M600.024 0.582735L433.856 409.549L430.657 409.412L596.832 0.451334L600.024 0.582735Z" fill="white"/>
<path d="M534.395 0.617014L285.131 409.577L281.972 409.383L531.231 0.417056L534.395 0.617014Z" fill="white"/>
<path d="M468.755 0.645579L136.406 409.611L133.288 409.349L465.636 0.38849L468.755 0.645579Z" fill="white"/>
<path d="M403.115 0.679858L-12.3183 409.64L-15.3856 409.32L400.047 0.354212L403.115 0.679858Z" fill="white"/>
<path d="M337.469 0.70271L-161.054 409.669L-164.059 409.292L334.464 0.331359L337.469 0.70271Z" fill="white"/>
<path d="M271.817 0.731276L-309.791 409.697L-312.726 409.269L268.881 0.302794L271.817 0.731276Z" fill="white"/>
<path d="M206.165 0.754128L-458.532 409.72L-461.388 409.24L203.303 0.279941L206.165 0.754128Z" fill="white"/>
<path d="M140.513 0.77698L-607.268 409.743L-610.05 409.217L137.732 0.257089L140.513 0.77698Z" fill="white"/>
<path d="M1405.7 9.78652H53.6248V10.8206H1405.7V9.78652Z" fill="white"/>
<path d="M1426.82 20.1844H32.5024V21.2184H1426.82V20.1844Z" fill="white"/>
<path d="M1449.3 31.2506H10.015V32.2847H1449.3V31.2506Z" fill="white"/>
<path d="M1473.28 43.0539H-13.9691V44.0879H1473.28V43.0539Z" fill="white"/>
<path d="M1498.92 55.6741H-39.6094V56.7081H1498.92V55.6741Z" fill="white"/>
<path d="M1526.39 69.197H-67.0776V70.231H1526.39V69.197Z" fill="white"/>
<path d="M1555.9 83.7196H-96.5793V84.7537H1555.9V83.7196Z" fill="white"/>
<path d="M1587.67 99.3564H-128.354V100.39H1587.67V99.3564Z" fill="white"/>
<path d="M1621.99 116.244H-162.665V117.278H1621.99V116.244Z" fill="white"/>
<path d="M1659.16 134.543H-199.838V135.577H1659.16V134.543Z" fill="white"/>
<path d="M1699.56 154.431H-240.243V155.465H1699.56V154.431Z" fill="white"/>
<path d="M1743.64 176.129H-284.321V177.163H1743.64V176.129Z" fill="white"/>
<path d="M1791.91 199.89H-332.598V200.924H1791.91V199.89Z" fill="white"/>
<path d="M1845.02 226.021H-385.695V227.055H1845.02V226.021Z" fill="white"/>
<path d="M1903.7 254.912H-444.384V255.946H1903.7V254.912Z" fill="white"/>
<path d="M1968.91 287.009H-509.59V288.043H1968.91V287.009Z" fill="white"/>
<path d="M2041.79 322.875H-582.468V323.909H2041.79V322.875Z" fill="white"/>
<path d="M2123.77 363.233H-664.45V364.267H2123.77V363.233Z" fill="white"/>
</g>
</svg>
