<svg width="16" height="17" viewBox="0 0 16 17" fill="none" xmlns="http://www.w3.org/2000/svg">
<path opacity="0.6" d="M14.875 0.375C15.4727 0.375 16 0.902344 16 1.53516V15C16 15.6328 15.4727 16.125 14.875 16.125H1.33984C0.742188 16.125 0.25 15.6328 0.25 15V1.53516C0.25 0.902344 0.742188 0.375 1.33984 0.375H14.875ZM4.99609 13.875V6.38672H2.67578V13.875H4.99609ZM3.83594 5.33203C4.57422 5.33203 5.17188 4.73438 5.17188 3.99609C5.17188 3.25781 4.57422 2.625 3.83594 2.625C3.0625 2.625 2.46484 3.25781 2.46484 3.99609C2.46484 4.73438 3.0625 5.33203 3.83594 5.33203ZM13.75 13.875V9.76172C13.75 7.75781 13.293 6.17578 10.9375 6.17578C9.8125 6.17578 9.03906 6.80859 8.72266 7.40625H8.6875V6.38672H6.47266V13.875H8.79297V10.1836C8.79297 9.19922 8.96875 8.25 10.1992 8.25C11.3945 8.25 11.3945 9.375 11.3945 10.2188V13.875H13.75Z" fill="white"/>
</svg>
