<svg width="68" height="68" viewBox="0 0 68 68" fill="none" xmlns="http://www.w3.org/2000/svg">
<g opacity="0.6">
<path d="M32.624 5.93089C33.5086 5.57854 34.4917 5.57854 35.3763 5.93089C38.2278 7.06646 38.7848 11.4394 42.1494 11.6828C44.5186 11.8542 46.8437 9.87914 49.2211 10.4712C50.1799 10.71 51.0081 11.3214 51.5272 12.1736C53.1172 14.785 51.065 18.6232 53.6587 20.7901C55.4607 22.2948 58.4379 22.1001 60.0045 23.9447C60.6641 24.7218 60.9882 25.7352 60.9035 26.7571C60.6528 29.797 56.7771 31.6982 57.6288 34.9743C58.2181 37.2421 60.7052 38.8365 60.9035 41.2428C60.9882 42.2648 60.6641 43.2783 60.0045 44.0552C58.0359 46.3728 53.7791 45.6095 52.5517 48.7509C51.6898 50.9558 52.7965 53.7418 51.5272 55.8263C51.0081 56.6785 50.1799 57.29 49.2211 57.5288C46.2691 58.2638 43.2728 55.0927 40.4321 56.8814C38.404 58.1581 37.6773 61.1532 35.3763 62.0689C34.4917 62.4214 33.5086 62.4214 32.624 62.0689C30.3231 61.1532 29.5963 58.1581 27.5682 56.8814C24.7627 55.1151 21.6812 58.2513 18.7792 57.5288C17.8203 57.29 16.9922 56.6785 16.4733 55.8263C14.8833 53.2151 16.9351 49.3765 14.3416 47.2098C12.54 45.705 9.5625 45.9 7.99595 44.0552C7.33626 43.2783 7.01221 42.2648 7.09667 41.2428C7.29557 38.8365 9.78197 37.2421 10.3716 34.9743C11.2147 31.7324 7.34428 29.7525 7.09667 26.7571C7.01221 25.7352 7.33626 24.7218 7.99595 23.9447C9.96432 21.6263 14.2206 22.3905 15.4486 19.2491C16.3106 17.0442 15.2041 14.2581 16.4733 12.1736C16.9922 11.3214 17.8203 10.71 18.7792 10.4712C21.1568 9.87914 23.4816 11.8543 25.8509 11.6828C29.2155 11.4394 29.7725 7.06646 32.624 5.93089Z" stroke="white" stroke-width="4.25" stroke-linejoin="round"/>
<path d="M25.5 37.7777C25.5 37.7777 27.9792 37.7777 30.4583 42.5C30.4583 42.5 38.3333 30.6944 45.3333 28.3334" stroke="white" stroke-width="4.25" stroke-linecap="round" stroke-linejoin="round"/>
</g>
</svg>
