<svg width="68" height="68" viewBox="0 0 68 68" fill="none" xmlns="http://www.w3.org/2000/svg">
<g opacity="0.6">
<path d="M60.4002 20.2339L59.0017 17.8068C57.944 15.9713 57.4153 15.0536 56.5154 14.6876C55.6156 14.3216 54.5978 14.6104 52.5627 15.188L49.1054 16.1618C47.8061 16.4614 46.4427 16.2914 45.2564 15.6818L44.3018 15.1311C43.2844 14.4795 42.5018 13.5187 42.0686 12.3894L41.1225 9.56345C40.5003 7.69339 40.1892 6.75836 39.4486 6.22354C38.7082 5.68872 37.7245 5.68872 35.757 5.68872H32.5984C30.6313 5.68872 29.6475 5.68872 28.9069 6.22354C28.1664 6.75836 27.8553 7.69339 27.2332 9.56345L26.287 12.3894C25.8538 13.5187 25.0713 14.4795 24.0539 15.1311L23.0994 15.6818C21.9129 16.2914 20.5497 16.4614 19.2503 16.1618L15.7929 15.188C13.7576 14.6104 12.74 14.3216 11.8402 14.6876C10.9404 15.0536 10.4116 15.9713 9.35391 17.8068L7.95543 20.2339C6.96402 21.9544 6.4683 22.8147 6.56452 23.7305C6.66071 24.6463 7.32433 25.3843 8.65155 26.8603L11.5728 30.1262C12.2868 31.03 12.7937 32.6054 12.7937 34.0217C12.7937 35.4387 12.287 37.0135 11.5729 37.9176L8.65155 41.1836C7.32433 42.6597 6.66074 43.3975 6.56452 44.3135C6.4683 45.2293 6.96402 46.0895 7.95543 47.8099L9.35388 50.2369C10.4115 52.0723 10.9404 52.9903 11.8402 53.3561C12.74 53.7222 13.7577 53.4335 15.793 52.8558L19.2501 51.8819C20.5498 51.5822 21.9133 51.7525 23.0999 52.3622L24.0542 52.913C25.0714 53.5647 25.8538 54.5252 26.2869 55.6545L27.2332 58.4808C27.8553 60.3508 28.1664 61.2858 28.9069 61.8207C29.6475 62.3554 30.6313 62.3554 32.5984 62.3554H35.757C37.7245 62.3554 38.7082 62.3554 39.4486 61.8207C40.1892 61.2858 40.5003 60.3508 41.1225 58.4808L42.0689 55.6545C42.5018 54.5252 43.2841 53.5647 44.3015 52.913L45.2558 52.3622C46.4424 51.7525 47.8058 51.5822 49.1054 51.8819L52.5627 52.8558C54.5978 53.4335 55.6156 53.7222 56.5154 53.3561C57.4153 52.9903 57.944 52.0723 59.0017 50.2369L60.4002 47.8099C61.3916 46.0895 61.8872 45.2293 61.7911 44.3135C61.6948 43.3975 61.0312 42.6597 59.7041 41.1836L56.7826 37.9176C56.0686 37.0135 55.5617 35.4387 55.5617 34.0217C55.5617 32.6054 56.0689 31.03 56.7826 30.1262L59.7041 26.8603C61.0312 25.3843 61.6948 24.6463 61.7911 23.7305C61.8872 22.8147 61.3916 21.9544 60.4002 20.2339Z" stroke="white" stroke-width="4.25" stroke-linecap="round"/>
<path d="M43.9719 34C43.9719 39.4769 39.5321 43.9167 34.0553 43.9167C28.5784 43.9167 24.1387 39.4769 24.1387 34C24.1387 28.5232 28.5784 24.0834 34.0553 24.0834C39.5321 24.0834 43.9719 28.5232 43.9719 34Z" stroke="white" stroke-width="4.25"/>
</g>
</svg>
