<svg width="195" height="196" viewBox="0 0 195 196" fill="none" xmlns="http://www.w3.org/2000/svg">
<path d="M176.942 0.775126C167.225 0.775126 159.306 8.69411 159.306 18.4107V23.9977C141.817 8.49978 119.614 0.0463867 96.0032 0.0463867C42.3192 0.0463867 0.295105 43.0421 0.295105 97.892C0.295105 152.742 42.3192 195.738 96.0032 195.738C119.857 195.738 142.06 187.333 159.306 171.884V177.033C159.306 186.944 167.225 195.009 176.942 195.009C186.658 195.009 194.577 187.09 194.577 177.033V18.4107C194.577 8.49978 186.804 0.775126 176.942 0.775126ZM97.8007 162.653C63.1126 162.653 35.9549 134.232 35.9549 97.9406C35.9549 61.6493 63.1126 33.2284 97.8007 33.2284C132.489 33.2284 157.946 59.9003 159.306 95.0742V100.71C157.897 136.029 131.469 162.653 97.8007 162.653Z" fill="white"/>
</svg>
