<svg width="195" height="263" viewBox="0 0 195 263" fill="none" xmlns="http://www.w3.org/2000/svg">
<path d="M176.639 0C166.922 0 159.003 7.91899 159.003 17.6355V90.9955C141.514 75.4976 119.311 67.0442 95.7001 67.0442C42.0162 67.0442 -0.0078125 110.04 -0.0078125 164.89C-0.0078125 219.74 42.0162 262.735 95.7001 262.735C119.554 262.735 141.757 254.331 159.003 238.881V244.031C159.003 253.942 166.922 262.007 176.639 262.007C186.355 262.007 194.275 254.088 194.275 244.031V17.6355C194.275 7.72466 186.55 0 176.639 0ZM97.4976 229.602C62.8096 229.602 35.6519 201.181 35.6519 164.89C35.6519 128.599 62.8096 100.178 97.4976 100.178C132.186 100.178 157.643 126.85 159.003 162.023V167.659C157.594 202.979 131.165 229.602 97.4976 229.602Z" fill="white"/>
</svg>
