<svg width="174" height="196" viewBox="0 0 174 196" fill="none" xmlns="http://www.w3.org/2000/svg">
<path d="M157.782 134.811C151.417 134.811 147.336 138.504 143.11 142.342C134.948 151.572 120.519 162.601 98.2193 162.601C63.5313 162.601 36.3735 134.18 36.3735 97.8884C36.3735 61.5971 63.5313 33.1762 98.2193 33.1762C109.102 33.1762 119.839 36.334 127.563 41.7267L74.4138 104.398C71.596 107.216 70.2356 110.957 70.2356 115.718C70.2356 125.095 77.3288 131.945 87.1425 131.945C92.0979 131.945 96.2274 130.05 99.7254 126.115L163.077 50.2773C166.867 46.0992 168.616 42.0668 168.616 37.3057C168.616 32.5446 166.235 27.3948 162.203 23.7997C145.879 8.73904 122.559 0.0913086 98.2193 0.0913086C43.5638 0.0913086 0.713745 43.087 0.713745 97.9369C0.713745 152.787 43.5152 195.783 98.2193 195.783C126.835 195.783 153.118 184.026 170.316 163.621C173.425 160.074 175.417 155.41 175.417 151.767C175.417 142.099 167.838 134.86 157.782 134.86" fill="white"/>
</svg>
